<?xml version="1.0" encoding="UTF-8"?>
<svg xmlns="http://www.w3.org/2000/svg" viewBox="0 0 1010 270" role="img" aria-labelledby="title desc">
  <title id="title">OTTOS Construtora</title>
  <desc id="desc">Logotipo OTTOS Construtora em azul petróleo.</desc>
  <g fill="#007d89" fill-rule="evenodd" clip-rule="evenodd">
    <path d="M 11.00,99.00 L 11.00,100.00 L 10.00,101.00 L 10.00,104.00 L 9.00,105.00 L 9.00,109.00 L 8.00,110.00 L 8.00,114.00 L 7.00,115.00 L 7.00,124.00 L 6.00,125.00 L 6.00,144.00 L 7.00,145.00 L 7.00,154.00 L 8.00,155.00 L 8.00,160.00 L 9.00,161.00 L 9.00,164.00 L 10.00,165.00 L 10.00,168.00 L 11.00,169.00 L 11.00,171.00 L 12.00,172.00 L 12.00,174.00 L 13.00,175.00 L 13.00,178.00 L 15.00,181.00 L 15.00,183.00 L 18.00,188.00 L 18.00,190.00 L 19.00,191.00 L 20.00,194.00 L 22.00,196.00 L 23.00,199.00 L 25.00,201.00 L 26.00,204.00 L 28.00,206.00 L 28.00,207.00 L 30.00,209.00 L 30.00,210.00 L 33.00,213.00 L 33.00,214.00 L 38.00,219.00 L 38.00,220.00 L 50.00,232.00 L 51.00,232.00 L 56.00,237.00 L 57.00,237.00 L 59.00,239.00 L 60.00,239.00 L 62.00,241.00 L 63.00,241.00 L 68.00,245.00 L 71.00,246.00 L 73.00,248.00 L 74.00,248.00 L 79.00,251.00 L 81.00,251.00 L 86.00,254.00 L 88.00,254.00 L 91.00,256.00 L 93.00,256.00 L 94.00,257.00 L 96.00,257.00 L 97.00,258.00 L 100.00,258.00 L 101.00,259.00 L 104.00,259.00 L 105.00,260.00 L 108.00,260.00 L 109.00,261.00 L 114.00,261.00 L 115.00,262.00 L 123.00,262.00 L 124.00,263.00 L 145.00,263.00 L 146.00,262.00 L 153.00,262.00 L 154.00,261.00 L 159.00,261.00 L 160.00,260.00 L 164.00,260.00 L 165.00,259.00 L 168.00,259.00 L 169.00,258.00 L 171.00,258.00 L 172.00,257.00 L 174.00,257.00 L 175.00,256.00 L 177.00,256.00 L 178.00,255.00 L 180.00,255.00 L 183.00,253.00 L 185.00,253.00 L 186.00,252.00 L 187.00,252.00 L 188.00,251.00 L 189.00,251.00 L 190.00,250.00 L 191.00,250.00 L 192.00,249.00 L 193.00,249.00 L 194.00,248.00 L 195.00,248.00 L 196.00,247.00 L 199.00,246.00 L 201.00,244.00 L 202.00,244.00 L 204.00,242.00 L 205.00,242.00 L 207.00,240.00 L 208.00,240.00 L 210.00,238.00 L 211.00,238.00 L 215.00,234.00 L 216.00,234.00 L 224.00,226.00 L 225.00,226.00 L 226.00,225.00 L 226.00,224.00 L 234.00,216.00 L 234.00,215.00 L 237.00,212.00 L 237.00,211.00 L 240.00,208.00 L 240.00,207.00 L 242.00,205.00 L 242.00,204.00 L 243.00,203.00 L 243.00,202.00 L 245.00,200.00 L 245.00,199.00 L 246.00,198.00 L 247.00,195.00 L 249.00,193.00 L 249.00,192.00 L 250.00,191.00 L 250.00,189.00 L 251.00,188.00 L 251.00,187.00 L 253.00,184.00 L 253.00,182.00 L 255.00,179.00 L 255.00,177.00 L 256.00,176.00 L 256.00,174.00 L 257.00,173.00 L 257.00,171.00 L 258.00,170.00 L 258.00,167.00 L 259.00,166.00 L 259.00,163.00 L 260.00,162.00 L 260.00,158.00 L 261.00,157.00 L 261.00,151.00 L 262.00,150.00 L 262.00,137.00 L 261.00,136.00 L 259.00,136.00 L 258.00,135.00 L 255.00,135.00 L 254.00,134.00 L 252.00,134.00 L 251.00,133.00 L 249.00,133.00 L 248.00,132.00 L 245.00,132.00 L 244.00,131.00 L 242.00,131.00 L 241.00,130.00 L 238.00,130.00 L 238.00,148.00 L 237.00,149.00 L 237.00,154.00 L 236.00,155.00 L 236.00,159.00 L 235.00,160.00 L 235.00,163.00 L 234.00,164.00 L 234.00,166.00 L 233.00,167.00 L 233.00,169.00 L 232.00,170.00 L 232.00,172.00 L 229.00,177.00 L 229.00,179.00 L 228.00,180.00 L 228.00,181.00 L 226.00,183.00 L 226.00,184.00 L 225.00,185.00 L 224.00,188.00 L 222.00,190.00 L 221.00,193.00 L 218.00,196.00 L 218.00,197.00 L 215.00,200.00 L 215.00,201.00 L 201.00,215.00 L 200.00,215.00 L 196.00,219.00 L 195.00,219.00 L 190.00,223.00 L 187.00,224.00 L 185.00,226.00 L 184.00,226.00 L 183.00,227.00 L 182.00,227.00 L 181.00,228.00 L 180.00,228.00 L 175.00,231.00 L 173.00,231.00 L 170.00,233.00 L 168.00,233.00 L 167.00,234.00 L 165.00,234.00 L 164.00,235.00 L 161.00,235.00 L 160.00,236.00 L 157.00,236.00 L 156.00,237.00 L 152.00,237.00 L 151.00,238.00 L 144.00,238.00 L 143.00,239.00 L 125.00,239.00 L 124.00,238.00 L 118.00,238.00 L 117.00,237.00 L 113.00,237.00 L 112.00,236.00 L 108.00,236.00 L 107.00,235.00 L 105.00,235.00 L 104.00,234.00 L 102.00,234.00 L 101.00,233.00 L 99.00,233.00 L 98.00,232.00 L 96.00,232.00 L 95.00,231.00 L 94.00,231.00 L 93.00,230.00 L 92.00,230.00 L 91.00,229.00 L 90.00,229.00 L 89.00,228.00 L 88.00,228.00 L 87.00,227.00 L 86.00,227.00 L 85.00,226.00 L 84.00,226.00 L 83.00,225.00 L 80.00,224.00 L 78.00,222.00 L 77.00,222.00 L 75.00,220.00 L 74.00,220.00 L 71.00,217.00 L 70.00,217.00 L 62.00,209.00 L 61.00,209.00 L 60.00,208.00 L 60.00,207.00 L 57.00,205.00 L 57.00,204.00 L 52.00,199.00 L 52.00,198.00 L 49.00,195.00 L 49.00,194.00 L 45.00,189.00 L 44.00,186.00 L 42.00,184.00 L 42.00,183.00 L 40.00,180.00 L 40.00,178.00 L 37.00,173.00 L 37.00,171.00 L 35.00,168.00 L 35.00,165.00 L 34.00,164.00 L 34.00,162.00 L 33.00,161.00 L 33.00,158.00 L 32.00,157.00 L 32.00,153.00 L 31.00,152.00 L 31.00,145.00 L 30.00,144.00 L 30.00,125.00 L 31.00,124.00 L 31.00,117.00 L 32.00,116.00 L 34.00,116.00 L 35.00,115.00 L 38.00,115.00 L 39.00,114.00 L 41.00,114.00 L 42.00,113.00 L 45.00,113.00 L 46.00,112.00 L 49.00,112.00 L 50.00,111.00 L 53.00,111.00 L 54.00,110.00 L 57.00,110.00 L 58.00,109.00 L 61.00,109.00 L 62.00,108.00 L 64.00,108.00 L 65.00,107.00 L 68.00,107.00 L 69.00,106.00 L 71.00,106.00 L 72.00,105.00 L 75.00,105.00 L 76.00,104.00 L 79.00,104.00 L 80.00,103.00 L 83.00,103.00 L 84.00,102.00 L 87.00,102.00 L 88.00,101.00 L 89.00,102.00 L 89.00,194.00 L 90.00,195.00 L 115.00,195.00 L 115.00,75.00 L 94.00,75.00 L 93.00,76.00 L 91.00,76.00 L 90.00,77.00 L 88.00,77.00 L 87.00,78.00 L 84.00,78.00 L 83.00,79.00 L 80.00,79.00 L 79.00,80.00 L 77.00,80.00 L 76.00,81.00 L 73.00,81.00 L 72.00,82.00 L 70.00,82.00 L 69.00,83.00 L 66.00,83.00 L 65.00,84.00 L 62.00,84.00 L 61.00,85.00 L 59.00,85.00 L 58.00,86.00 L 55.00,86.00 L 54.00,87.00 L 52.00,87.00 L 51.00,88.00 L 48.00,88.00 L 47.00,89.00 L 45.00,89.00 L 44.00,90.00 L 41.00,90.00 L 40.00,91.00 L 38.00,91.00 L 37.00,92.00 L 34.00,92.00 L 33.00,93.00 L 30.00,93.00 L 29.00,94.00 L 27.00,94.00 L 26.00,95.00 L 23.00,95.00 L 22.00,96.00 L 20.00,96.00 L 19.00,97.00 L 16.00,97.00 L 15.00,98.00 L 13.00,98.00 L 12.00,99.00 Z M 59.00,30.00 L 56.00,33.00 L 55.00,33.00 L 49.00,39.00 L 48.00,39.00 L 39.00,48.00 L 39.00,49.00 L 34.00,54.00 L 34.00,55.00 L 30.00,59.00 L 30.00,60.00 L 28.00,62.00 L 28.00,63.00 L 24.00,68.00 L 24.00,69.00 L 23.00,70.00 L 23.00,71.00 L 22.00,72.00 L 22.00,73.00 L 21.00,74.00 L 21.00,75.00 L 20.00,76.00 L 20.00,77.00 L 19.00,78.00 L 19.00,79.00 L 18.00,80.00 L 18.00,81.00 L 17.00,82.00 L 17.00,83.00 L 16.00,84.00 L 15.00,87.00 L 16.00,87.00 L 17.00,86.00 L 20.00,86.00 L 21.00,85.00 L 23.00,85.00 L 24.00,84.00 L 27.00,84.00 L 28.00,83.00 L 30.00,83.00 L 31.00,82.00 L 33.00,82.00 L 34.00,81.00 L 37.00,81.00 L 38.00,80.00 L 41.00,80.00 L 42.00,79.00 L 44.00,79.00 L 45.00,78.00 L 47.00,78.00 L 47.00,77.00 L 50.00,74.00 L 50.00,73.00 L 52.00,71.00 L 52.00,70.00 L 60.00,62.00 L 60.00,61.00 L 61.00,60.00 L 62.00,60.00 L 69.00,53.00 L 70.00,53.00 L 73.00,50.00 L 74.00,50.00 L 77.00,47.00 L 80.00,46.00 L 82.00,44.00 L 83.00,44.00 L 84.00,43.00 L 85.00,43.00 L 86.00,42.00 L 87.00,42.00 L 88.00,41.00 L 89.00,41.00 L 90.00,40.00 L 91.00,40.00 L 96.00,37.00 L 98.00,37.00 L 99.00,36.00 L 101.00,36.00 L 102.00,35.00 L 104.00,35.00 L 105.00,34.00 L 108.00,34.00 L 109.00,33.00 L 112.00,33.00 L 113.00,32.00 L 117.00,32.00 L 118.00,31.00 L 126.00,31.00 L 127.00,30.00 L 142.00,30.00 L 143.00,31.00 L 151.00,31.00 L 152.00,32.00 L 156.00,32.00 L 157.00,33.00 L 160.00,33.00 L 161.00,34.00 L 163.00,34.00 L 164.00,35.00 L 167.00,35.00 L 170.00,37.00 L 172.00,37.00 L 173.00,38.00 L 175.00,38.00 L 176.00,39.00 L 177.00,39.00 L 178.00,40.00 L 179.00,40.00 L 180.00,41.00 L 183.00,42.00 L 185.00,44.00 L 186.00,44.00 L 187.00,45.00 L 188.00,45.00 L 190.00,47.00 L 193.00,48.00 L 196.00,51.00 L 197.00,51.00 L 201.00,55.00 L 202.00,55.00 L 214.00,67.00 L 214.00,68.00 L 218.00,72.00 L 218.00,73.00 L 220.00,75.00 L 220.00,76.00 L 224.00,81.00 L 225.00,84.00 L 227.00,86.00 L 227.00,87.00 L 228.00,88.00 L 228.00,90.00 L 229.00,91.00 L 228.00,92.00 L 226.00,92.00 L 225.00,91.00 L 223.00,91.00 L 222.00,90.00 L 220.00,90.00 L 219.00,89.00 L 217.00,89.00 L 216.00,88.00 L 214.00,88.00 L 213.00,87.00 L 210.00,87.00 L 209.00,86.00 L 207.00,86.00 L 206.00,85.00 L 204.00,85.00 L 203.00,84.00 L 200.00,84.00 L 197.00,82.00 L 194.00,82.00 L 193.00,81.00 L 191.00,81.00 L 190.00,80.00 L 188.00,80.00 L 187.00,79.00 L 184.00,79.00 L 183.00,78.00 L 181.00,78.00 L 180.00,77.00 L 178.00,77.00 L 177.00,76.00 L 175.00,76.00 L 174.00,75.00 L 153.00,75.00 L 153.00,194.00 L 154.00,195.00 L 179.00,195.00 L 179.00,102.00 L 180.00,101.00 L 181.00,101.00 L 182.00,102.00 L 184.00,102.00 L 185.00,103.00 L 187.00,103.00 L 188.00,104.00 L 191.00,104.00 L 192.00,105.00 L 194.00,105.00 L 195.00,106.00 L 197.00,106.00 L 198.00,107.00 L 201.00,107.00 L 202.00,108.00 L 204.00,108.00 L 205.00,109.00 L 207.00,109.00 L 208.00,110.00 L 211.00,110.00 L 212.00,111.00 L 214.00,111.00 L 215.00,112.00 L 218.00,112.00 L 219.00,113.00 L 221.00,113.00 L 222.00,114.00 L 224.00,114.00 L 225.00,115.00 L 227.00,115.00 L 228.00,116.00 L 231.00,116.00 L 232.00,117.00 L 234.00,117.00 L 235.00,118.00 L 237.00,118.00 L 238.00,119.00 L 241.00,119.00 L 242.00,120.00 L 244.00,120.00 L 245.00,121.00 L 247.00,121.00 L 248.00,122.00 L 251.00,122.00 L 252.00,123.00 L 254.00,123.00 L 255.00,124.00 L 257.00,124.00 L 258.00,125.00 L 261.00,125.00 L 262.00,126.00 L 262.00,119.00 L 261.00,118.00 L 261.00,112.00 L 260.00,111.00 L 260.00,107.00 L 259.00,106.00 L 259.00,103.00 L 258.00,102.00 L 258.00,99.00 L 257.00,98.00 L 257.00,96.00 L 256.00,95.00 L 256.00,93.00 L 255.00,92.00 L 255.00,90.00 L 254.00,89.00 L 254.00,88.00 L 253.00,87.00 L 253.00,85.00 L 250.00,80.00 L 250.00,78.00 L 248.00,76.00 L 248.00,75.00 L 247.00,74.00 L 247.00,73.00 L 246.00,72.00 L 245.00,69.00 L 243.00,67.00 L 243.00,66.00 L 242.00,65.00 L 242.00,64.00 L 240.00,62.00 L 240.00,61.00 L 237.00,58.00 L 237.00,57.00 L 233.00,53.00 L 233.00,52.00 L 216.00,35.00 L 215.00,35.00 L 212.00,32.00 L 211.00,32.00 L 208.00,29.00 L 207.00,29.00 L 202.00,25.00 L 199.00,24.00 L 197.00,22.00 L 196.00,22.00 L 195.00,21.00 L 194.00,21.00 L 193.00,20.00 L 192.00,20.00 L 187.00,17.00 L 185.00,17.00 L 182.00,15.00 L 180.00,15.00 L 179.00,14.00 L 178.00,14.00 L 177.00,13.00 L 175.00,13.00 L 174.00,12.00 L 171.00,12.00 L 170.00,11.00 L 168.00,11.00 L 167.00,10.00 L 164.00,10.00 L 163.00,9.00 L 159.00,9.00 L 158.00,8.00 L 154.00,8.00 L 153.00,7.00 L 148.00,7.00 L 147.00,6.00 L 122.00,6.00 L 121.00,7.00 L 116.00,7.00 L 115.00,8.00 L 110.00,8.00 L 109.00,9.00 L 106.00,9.00 L 105.00,10.00 L 102.00,10.00 L 101.00,11.00 L 98.00,11.00 L 97.00,12.00 L 94.00,12.00 L 91.00,14.00 L 89.00,14.00 L 86.00,16.00 L 84.00,16.00 L 83.00,17.00 L 82.00,17.00 L 81.00,18.00 L 80.00,18.00 L 79.00,19.00 L 78.00,19.00 L 77.00,20.00 L 76.00,20.00 L 75.00,21.00 L 74.00,21.00 L 73.00,22.00 L 72.00,22.00 L 71.00,23.00 L 68.00,24.00 L 66.00,26.00 L 65.00,26.00 L 63.00,28.00 L 62.00,28.00 L 60.00,30.00 Z"/>
    <path d="M 651,174 649,176 649,177 646,182 646,184 645,185 645,186 642,191 642,193 641,194 641,195 639,198 639,200 638,201 638,202 637,203 637,204 634,209 634,211 633,212 633,213 630,218 630,220 641,220 641,219 642,218 642,217 643,216 643,215 646,210 663,210 666,212 666,214 667,215 668,218 670,220 680,220 680,218 679,217 679,215 678,214 678,213 677,212 677,211 674,206 674,204 673,203 673,202 670,197 670,195 669,194 669,193 666,188 666,186 665,185 665,184 664,183 664,182 663,181 663,180 662,179 661,176 659,174 Z M 655,190 657,192 657,193 658,194 658,196 660,199 659,200 651,200 650,199 651,198 651,197 652,196 652,195 Z M 570,174 569,175 569,219 570,220 580,220 580,207 582,205 595,205 599,209 599,215 600,216 600,220 612,220 612,219 611,218 611,216 610,215 610,205 609,204 609,203 607,201 607,199 609,197 609,196 610,195 610,192 611,191 611,187 610,186 610,184 609,183 608,180 607,179 606,179 604,177 603,177 600,175 595,175 594,174 Z M 580,185 581,184 594,184 595,185 597,185 599,187 599,191 598,192 598,193 595,195 581,195 580,194 Z M 512,178 508,182 507,182 507,183 505,185 505,186 503,189 503,191 502,192 502,203 503,204 503,205 504,206 505,209 507,211 507,212 509,214 510,214 513,217 514,217 517,219 520,219 521,220 533,220 534,219 537,219 538,218 539,218 541,216 542,216 544,214 545,214 545,213 546,212 547,212 547,211 549,209 549,208 551,205 551,203 552,202 552,192 551,191 551,189 550,188 549,185 542,178 541,178 536,175 534,175 533,174 521,174 520,175 518,175 517,176 516,176 515,177 Z M 527,183 528,184 531,184 532,185 535,186 539,190 539,191 541,194 541,200 540,201 539,204 534,209 532,209 531,210 528,210 527,211 526,210 522,210 521,209 520,209 515,204 515,203 513,200 513,194 514,193 515,190 520,185 521,185 522,184 526,184 Z M 440,174 440,184 456,184 457,185 457,220 468,220 468,185 469,184 485,184 485,175 484,174 Z M 380,174 380,205 381,206 381,208 382,209 382,210 384,212 384,213 386,215 387,215 392,219 394,219 395,220 407,220 408,219 410,219 411,218 412,218 414,216 415,216 419,212 419,211 422,206 422,202 423,201 422,200 422,197 423,196 423,183 422,182 422,174 411,174 411,203 410,204 409,207 407,209 406,209 405,210 397,210 392,205 392,204 391,203 391,175 390,174 Z M 319,174 319,220 330,220 330,206 331,205 345,205 348,208 348,209 349,210 349,218 350,219 350,220 362,220 360,217 360,207 359,206 359,204 358,203 358,202 356,200 358,198 358,197 359,196 359,194 360,193 360,185 359,184 358,181 354,177 353,177 352,176 350,176 349,175 345,175 344,174 Z M 330,185 331,184 345,184 348,186 348,187 349,188 349,191 345,195 331,195 330,194 Z M 257,174 256,175 256,184 272,184 273,185 273,220 284,220 284,185 285,184 301,184 301,174 Z M 198,179 195,182 195,183 194,184 194,186 193,187 193,190 194,191 194,193 195,194 195,195 197,197 198,197 200,199 202,199 203,200 206,200 207,201 212,201 213,202 218,202 219,203 225,203 228,206 228,207 225,210 222,210 221,211 213,211 212,210 208,210 207,209 205,209 204,208 202,208 200,206 199,206 198,205 196,207 196,208 194,210 194,211 192,214 193,214 194,215 195,215 197,217 199,217 202,219 205,219 206,220 211,220 212,221 221,221 222,220 227,220 228,219 230,219 231,218 232,218 237,214 237,213 239,210 239,202 238,201 238,200 234,196 233,196 232,195 229,195 228,194 224,194 223,193 217,193 216,192 210,192 209,191 207,191 205,189 205,187 206,186 207,186 208,185 210,185 211,184 221,184 222,185 225,185 230,189 232,189 232,188 238,181 237,181 235,179 234,179 229,176 227,176 226,175 222,175 221,174 211,174 210,175 207,175 206,176 204,176 203,177 202,177 201,178 Z M 133,174 133,220 144,220 144,196 145,195 149,199 149,200 153,204 153,205 156,208 156,209 160,213 160,214 164,218 164,219 165,220 175,220 176,219 176,175 175,174 165,174 164,175 165,176 165,193 164,194 165,195 165,196 164,197 165,198 165,199 164,200 159,195 159,194 156,191 156,190 152,186 152,185 149,182 149,181 145,177 145,176 144,175 143,175 142,174 Z M 85,174 84,175 82,175 81,176 80,176 79,177 76,178 74,180 73,180 73,181 72,182 71,182 71,183 69,185 69,186 66,191 66,196 65,197 66,198 66,203 67,204 67,206 68,207 68,208 71,211 71,212 74,215 75,215 77,217 78,217 81,219 83,219 84,220 97,220 98,219 100,219 101,218 103,218 105,216 106,216 113,209 113,208 115,205 115,203 116,202 116,192 115,191 115,189 114,188 113,185 106,178 105,178 100,175 98,175 97,174 Z M 90,183 91,184 95,184 96,185 99,186 103,190 103,191 104,192 104,194 105,195 105,200 104,201 103,204 98,209 96,209 95,210 91,210 90,211 89,210 86,210 85,209 84,209 78,203 78,201 77,200 77,193 79,191 79,190 84,185 85,185 86,184 89,184 Z M 14,178 8,184 8,185 6,187 6,189 5,190 5,192 4,193 4,201 5,202 5,205 6,206 7,209 11,213 11,214 12,214 15,217 16,217 19,219 21,219 22,220 37,220 38,219 40,219 41,218 43,218 45,216 46,216 49,213 49,212 43,206 43,205 42,205 39,208 38,208 35,210 25,210 24,209 21,208 17,204 17,202 16,201 16,199 15,198 15,196 16,195 16,192 17,191 17,190 21,186 22,186 25,184 35,184 36,185 39,186 41,188 43,188 49,182 49,181 44,177 43,177 40,175 37,175 36,174 24,174 23,175 20,175 19,176 18,176 17,177 Z M 604,6 603,7 602,7 601,8 599,8 597,10 595,10 593,12 592,12 585,19 585,20 583,22 583,23 581,26 581,29 580,30 580,35 579,36 579,40 580,41 580,45 581,46 581,49 582,50 583,53 585,55 585,56 592,63 593,63 595,65 596,65 599,67 601,67 604,69 606,69 607,70 609,70 612,72 614,72 615,73 618,73 619,74 621,74 622,75 624,75 625,76 627,76 628,77 630,77 631,78 633,78 634,79 636,79 637,80 639,80 640,81 642,81 645,83 647,83 648,84 649,84 652,87 652,88 654,91 654,93 653,94 653,96 649,100 648,100 645,102 641,102 640,103 623,103 622,102 618,102 617,101 614,101 613,100 610,100 609,99 606,99 605,98 602,98 601,97 599,97 598,96 595,96 594,95 591,95 590,94 587,94 587,95 584,100 584,102 583,103 583,104 582,105 582,106 579,111 579,113 578,114 577,117 578,117 579,118 580,118 581,119 582,119 587,122 589,122 590,123 592,123 595,125 598,125 599,126 601,126 602,127 606,127 607,128 611,128 612,129 619,129 620,130 643,130 644,129 649,129 650,128 653,128 654,127 657,127 660,125 662,125 663,124 664,124 665,123 668,122 670,120 671,120 679,112 679,111 682,106 682,104 683,103 683,100 684,99 684,86 683,85 683,82 682,81 682,79 680,77 679,74 672,67 671,67 669,65 668,65 667,64 666,64 661,61 659,61 658,60 657,60 656,59 654,59 651,57 649,57 648,56 646,56 645,55 643,55 642,54 640,54 639,53 637,53 636,52 634,52 633,51 631,51 630,50 628,50 625,48 623,48 622,47 620,47 619,46 618,46 617,45 614,44 610,40 610,36 611,35 611,34 614,31 615,31 618,29 625,29 626,28 638,28 639,29 648,29 649,30 652,30 653,31 656,31 657,32 660,32 661,33 663,33 664,34 666,34 667,35 669,35 670,36 671,36 671,35 674,30 674,28 675,27 675,26 678,21 678,19 679,18 679,17 680,16 681,13 680,13 677,11 675,11 674,10 672,10 671,9 668,9 667,8 665,8 664,7 662,7 661,6 658,6 657,5 654,5 653,4 649,4 648,3 640,3 639,2 622,2 621,3 615,3 614,4 610,4 609,5 607,5 606,6 Z M 294,2 294,30 341,30 342,31 342,131 373,131 374,130 374,31 375,30 421,30 421,2 Z M 148,2 148,30 195,30 196,31 196,131 198,131 199,130 200,131 227,131 228,130 228,31 229,30 275,30 276,29 276,3 275,2 Z M 496,0 495,1 486,1 485,2 481,2 480,3 477,3 476,4 474,4 473,5 471,5 470,6 469,6 468,7 467,7 466,8 465,8 464,9 463,9 462,10 461,10 460,11 457,12 455,14 454,14 451,17 450,17 439,28 439,29 435,34 435,35 434,36 434,37 431,42 431,44 429,47 429,50 428,51 428,54 427,55 427,61 426,62 426,72 427,73 427,79 428,80 428,83 429,84 429,86 431,89 431,91 432,92 433,95 435,97 435,98 436,99 436,100 438,102 438,103 442,107 442,108 443,108 445,110 445,111 446,112 447,112 452,117 453,117 456,120 457,120 458,121 461,122 463,124 464,124 465,125 467,125 470,127 472,127 473,128 475,128 476,129 478,129 479,130 483,130 484,131 491,131 492,132 503,132 504,131 511,131 512,130 516,130 517,129 519,129 520,128 523,128 526,126 528,126 529,125 532,124 534,122 535,122 536,121 539,120 542,117 543,117 548,112 549,112 551,110 551,109 556,104 556,103 559,100 559,99 560,98 560,97 562,95 562,94 563,93 563,91 566,86 566,84 567,83 567,80 568,79 568,74 569,73 569,59 568,58 568,53 567,52 567,49 566,48 566,46 564,43 564,41 563,40 563,39 561,37 560,34 558,32 558,31 555,28 555,27 545,17 544,17 541,14 540,14 535,10 534,10 533,9 532,9 527,6 525,6 522,4 519,4 518,3 516,3 515,2 511,2 510,1 501,1 500,0 Z M 493,28 502,28 503,29 507,29 508,30 510,30 511,31 513,31 514,32 517,33 519,35 520,35 523,38 524,38 527,41 527,42 531,46 531,47 533,49 533,50 534,51 534,53 536,56 536,59 537,60 537,72 536,73 536,76 534,79 534,81 533,82 533,83 531,85 531,86 528,89 528,90 523,95 522,95 517,99 516,99 511,102 509,102 508,103 504,103 503,104 492,104 491,103 487,103 486,102 484,102 483,101 482,101 481,100 478,99 476,97 475,97 473,95 472,95 467,90 467,89 464,86 464,85 463,84 463,83 460,78 460,76 459,75 459,71 458,70 458,62 459,61 459,57 460,56 460,54 461,53 461,52 462,51 462,50 463,49 464,46 468,42 468,41 471,38 472,38 475,35 476,35 478,33 479,33 482,31 484,31 485,30 487,30 488,29 492,29 Z M 70,0 69,1 60,1 59,2 55,2 54,3 51,3 50,4 48,4 47,5 45,5 44,6 43,6 42,7 41,7 40,8 39,8 38,9 37,9 36,10 35,10 34,11 31,12 29,14 28,14 25,17 24,17 13,28 13,29 9,34 9,35 8,36 8,37 5,42 5,44 4,45 4,47 3,48 3,50 2,51 2,54 1,55 1,61 0,62 0,72 1,73 1,78 2,79 2,82 3,83 3,85 4,86 4,88 5,89 5,90 6,91 6,93 8,95 8,96 9,97 10,100 13,103 13,104 17,108 17,109 18,110 19,110 20,111 20,112 21,112 26,117 27,117 30,120 31,120 32,121 33,121 34,122 35,122 36,123 37,123 38,124 39,124 44,127 46,127 47,128 49,128 50,129 53,129 54,130 57,130 58,131 65,131 66,132 77,132 78,131 85,131 86,130 90,130 91,129 94,129 95,128 97,128 100,126 102,126 103,125 104,125 105,124 108,123 110,121 113,120 116,117 117,117 122,112 123,112 126,109 126,108 131,103 131,102 133,100 133,99 134,98 134,97 136,95 136,94 137,93 137,91 140,86 140,83 141,82 141,80 142,79 142,74 143,73 143,59 142,58 142,53 141,52 141,49 140,48 140,46 138,43 138,41 137,40 136,37 134,35 134,34 132,32 132,31 130,29 130,28 119,17 118,17 115,14 114,14 109,10 108,10 107,9 106,9 101,6 99,6 96,4 93,4 92,3 90,3 89,2 85,2 84,1 74,1 73,0 Z M 66,28 77,28 78,29 81,29 82,30 84,30 85,31 87,31 88,32 91,33 93,35 94,35 97,38 98,38 102,42 102,43 105,46 105,47 107,49 107,50 109,53 109,55 110,56 110,59 111,60 111,72 110,73 110,76 109,77 109,79 108,80 107,83 105,85 105,86 103,88 103,89 97,95 96,95 93,98 92,98 91,99 90,99 85,102 83,102 82,103 78,103 77,104 66,104 65,103 61,103 60,102 58,102 57,101 56,101 55,100 54,100 53,99 50,98 46,94 45,94 41,90 41,89 38,86 37,83 35,81 35,79 34,78 34,76 33,75 33,71 32,70 32,62 33,61 33,57 34,56 34,54 35,53 35,52 36,51 36,50 37,49 38,46 49,35 50,35 52,33 53,33 58,30 61,30 62,29 65,29 Z" transform="translate(300 24)"/>
  </g>
</svg>
